<svg viewBox="0 0 256 256" fill="none" xmlns="http://www.w3.org/2000/svg"><rect width="256" height="256" rx="25" fill="red"/><path d="M188.656 51.938h-19.14a5.467 5.467 0 0 0-5.469 5.468v16.407h-16.406V57.406a5.47 5.47 0 0 0-5.469-5.468h-27.344a5.47 5.47 0 0 0-5.469 5.468v16.407H92.987V57.406a5.47 5.47 0 0 0-5.468-5.468H68.344a5.47 5.47 0 0 0-5.469 5.468v60.156L84.75 128.5c0 16.519-.526 32.471-4.515 54.688h96.53c-3.989-22.217-4.515-38.377-4.515-54.688l21.875-10.938V57.406a5.467 5.467 0 0 0-5.469-5.468m-49.218 98.437h-21.876V128.5a10.938 10.938 0 0 1 21.876 0zm49.218 43.75H68.344a5.467 5.467 0 0 0-5.469 5.469v10.937A5.467 5.467 0 0 0 68.344 216h120.312a5.47 5.47 0 0 0 3.867-1.602 5.47 5.47 0 0 0 1.602-3.867v-10.937a5.47 5.47 0 0 0-1.602-3.867 5.47 5.47 0 0 0-3.867-1.602" fill="#fff"/><path fill="#fff" d="M110 112h36v41h-36z"/><circle cx="128" cy="115" r="14" fill="red"/><g clip-path="url(#a)"><path d="m128 102 16.454 58.5h-32.908z" fill="red"/></g><defs><clipPath id="a"><path fill="#fff" d="M104 102h48v66h-48z"/></clipPath></defs></svg>